# xmcd
#
# Track frame offsets: 
#        212
#        12992
#        25665
#        47145
#        61265
#        75995
#        92707
#        106720
#        119255
#        140305
#
# Disc length: 2041 seconds
#
# Revision: 4
# Processed by: cddbd v1.5.2PL0 Copyright (c) Steve Scherf et al.
# Submitted via: ExactAudioCopy v1.0b3
#
DISCID=6e07f70a
DTITLE=Walter Horton - Can't Keep Lovin' You
DYEAR=1984
DGENRE=Blues
TTITLE0=Skip It
TTITLE1=Hard Hearted Woman
TTITLE2=Tin Pan Alley
TTITLE3=Walter's Boogie
TTITLE4=Sugar Mama
TTITLE5=Honeydripper
TTITLE6=West Wind
TTITLE7=Can't Keep Lovin' You
TTITLE8=Careless Love
TTITLE9=Gettin' Outta Town
EXTD=BP71484
EXTT0=
EXTT1=
EXTT2=
EXTT3=
EXTT4=
EXTT5=
EXTT6=
EXTT7=
EXTT8=
EXTT9=
PLAYORDER=
